<svg xmlns="http://www.w3.org/2000/svg" viewBox="-280 -513 3492 3492">
  <rect x="-280" y="-513" width="3492" height="3492" fill="#fff"/>
  <mask id="d" maskUnits="userSpaceOnUse" x="1692" y="776" width="1200" height="1650">
    <path d="M2892 2426H1692V776H2892V2426Z" fill="#fff"/>
    <path d="M2757 2396H2522V806H2757V2396Z"/>
  </mask>
  <g mask="url(#d)">
    <path d="M2222 2366C2359 2366 2480 2308 2556 2186H2558V2346H2724V856H2554V1446H2552C2484 1328 2359 1270 2222 1270C1947 1270 1764 1492 1764 1818C1764 2143 1947 2366 2222 2366ZM2248 2213C2065 2213 1936 2077 1936 1818C1936 1559 2065 1422 2248 1422C2444 1422 2568 1579 2568 1818C2568 2057 2444 2213 2248 2213Z" fill="#071A35"/>
  </g>
  <path d="M2724 2346H2574V856H2724V2346Z" fill="#7436E8"/>
  <mask id="m" maskUnits="userSpaceOnUse" x="40" y="1176" width="1800" height="1250">
    <path d="M1840 2426H40V1176H1840V2426Z" fill="#fff"/>
    <path d="M375 2396H140V1236H375V2396Z"/>
  </mask>
  <g mask="url(#m)">
    <path d="M166 2346H336V1702C336 1520 458 1426 591 1426C719 1426 814 1510 814 1636V2346H984V1674C984 1531 1078 1426 1233 1426C1354 1426 1462 1490 1462 1654V2346H1632V1654C1632 1394 1474 1270 1281 1270C1124 1270 1006 1352 948 1460C904 1354 790 1270 645 1270C516 1270 399 1337 332 1461V1290H166V2346Z" fill="#071A35"/>
  </g>
  <path d="M336 2346H166V1290H336V2346Z" fill="#FF7A00"/>
  <mask id="n" maskUnits="userSpaceOnUse" x="449" y="40" width="1200" height="1250">
    <path d="M1649 1290H449V40H1649V1290Z" fill="#fff"/>
    <path d="M784 1260H549V100H784V1260Z"/>
  </mask>
  <g mask="url(#n)">
    <path d="M745 592C745 379 869 290 1023 290C1181 290 1273 383 1273 566V1210H1443V554C1443 273 1268 134 1055 134C921 134 814 189 741 309V154H575V1210H745V592Z" fill="#071A35"/>
  </g>
  <path d="M745 1210H575V154H745V1210Z" fill="#12C8BE"/>
  <path d="M1436 154H1620L1972 1210H1788L1436 154Z" fill="#86D11F"/>
  <path d="M2012 1210L2424 154H2243L1956 1030L2012 1210Z" fill="#071A35"/>
</svg>
